<svg width="296" height="216" viewBox="0 0 296 216" fill="none" xmlns="http://www.w3.org/2000/svg">
<g opacity="0.48">
<path d="M100.345 20.56C103.651 14.86 104.791 10.528 104.791 7.336C104.791 5.626 104.335 4.258 103.765 3.004C102.625 0.495999 100.915 0.153996 98.8628 2.776C94.3028 8.818 84.4988 26.26 77.2028 40.738C70.9328 41.308 65.1188 42.79 57.9368 43.816L70.1348 21.586C72.8708 16.57 73.8968 12.124 73.8968 8.932C73.8968 6.994 73.5548 5.512 72.8708 4.258C71.6168 2.092 69.9068 1.75 68.0828 4.144C63.2948 10.984 52.9208 29.908 45.8528 44.614C44.5988 44.614 43.9148 44.386 42.2048 44.272C39.1268 44.044 38.4428 44.842 39.5828 47.008C40.0388 47.806 40.9508 49.174 43.2308 50.428C38.4428 61.714 37.3028 65.134 37.3028 68.44C37.3028 71.062 38.2148 73 39.2408 74.368C40.6088 76.306 42.6608 75.736 43.4588 73.798C46.7648 66.502 50.0708 59.206 53.3768 52.366C58.5068 52.366 65.8028 50.998 72.8708 50.086C71.0468 53.848 69.5648 57.61 68.7668 59.776C67.7408 62.854 67.2848 65.134 67.2848 66.844C67.2848 69.352 68.1968 71.062 69.2228 72.658C70.4768 74.71 72.4148 74.14 73.2128 72.316C76.9748 63.994 80.7368 56.242 84.3848 49.06C86.3228 49.06 87.9188 49.174 89.6288 49.402C91.7948 49.744 92.5928 48.832 92.2508 47.35C91.7948 45.526 90.5408 43.588 88.1468 42.334C90.6548 37.774 93.1628 33.328 100.345 20.56Z" fill="#DFD4C0"/>
<path d="M93.8788 45.982C89.7748 51.682 87.7228 58.066 87.7228 62.968C87.7228 69.694 91.3708 74.596 98.0968 74.596C102.657 74.596 107.787 71.062 111.093 67.87C112.005 72.088 115.311 75.052 121.011 75.052C127.965 75.052 135.261 69.01 138.225 62.74C139.821 59.434 139.137 56.356 138.681 55.33C137.541 52.936 136.515 53.05 135.261 55.33C131.499 62.74 125.799 70.492 121.695 70.492C120.555 70.492 120.099 69.466 120.099 67.756C120.099 60.118 129.675 47.692 132.639 41.422C135.603 35.494 134.577 30.478 132.639 28.198C131.271 26.602 129.333 26.716 127.965 28.996L125.799 32.53C124.773 29.566 122.265 27.514 118.161 27.514C112.347 27.514 102.999 32.872 93.8788 45.982ZM99.5788 69.58C98.4388 69.58 97.9828 68.212 97.9828 66.16C97.9828 62.512 99.9208 56.47 103.341 51.112C109.155 41.764 117.021 34.582 119.301 34.582C120.441 34.582 120.669 35.38 120.669 36.748C120.669 39.712 118.617 45.298 114.171 53.05C108.585 62.626 103.341 69.58 99.5788 69.58Z" fill="#DFD4C0"/>
<path d="M148.625 46.21C153.527 37.888 159.797 32.644 161.849 33.556C162.419 33.784 162.647 35.152 162.647 37.204C162.647 40.966 161.279 46.78 158.543 52.138C153.869 61.6 148.739 67.87 145.205 67.87C142.241 67.87 141.443 59.662 144.977 52.366L148.625 46.21ZM172.337 40.624C172.337 34.81 169.031 28.654 162.191 28.654C159.113 28.654 155.807 30.136 152.957 32.074C152.957 30.592 152.729 29.11 151.817 27.856C150.905 26.602 149.423 26.146 147.371 28.654C140.303 38.116 121.493 73.57 118.187 84.4C117.161 87.592 116.819 89.986 116.819 91.81C116.819 94.204 117.389 95.8 119.099 97.966C120.239 99.334 121.607 98.878 122.519 96.826C127.307 85.654 132.209 75.85 137.225 66.502C139.847 72.658 145.433 75.736 154.439 75.736C163.901 75.736 173.477 72.544 178.607 63.31C180.545 59.89 180.431 56.698 180.203 55.558C179.747 53.278 177.353 52.708 175.985 55.33C172.679 61.942 166.181 69.466 157.745 71.176C161.393 68.212 165.155 63.082 167.891 56.812C170.513 51.34 172.337 45.526 172.337 40.624Z" fill="#DFD4C0"/>
<path d="M188.957 46.21C193.859 37.888 200.129 32.644 202.181 33.556C202.751 33.784 202.979 35.152 202.979 37.204C202.979 40.966 201.611 46.78 198.875 52.138C194.201 61.6 189.071 67.87 185.537 67.87C182.573 67.87 181.775 59.662 185.309 52.366L188.957 46.21ZM212.669 40.624C212.669 34.81 209.363 28.654 202.523 28.654C199.445 28.654 196.139 30.136 193.289 32.074C193.289 30.592 193.061 29.11 192.149 27.856C191.237 26.602 189.755 26.146 187.703 28.654C180.635 38.116 161.825 73.57 158.519 84.4C157.493 87.592 157.151 89.986 157.151 91.81C157.151 94.204 157.721 95.8 159.431 97.966C160.571 99.334 161.939 98.878 162.851 96.826C167.639 85.654 172.541 75.85 177.557 66.502C180.179 72.658 185.765 75.736 194.771 75.736C204.233 75.736 213.809 72.544 218.939 63.31C220.877 59.89 220.763 56.698 220.535 55.558C220.079 53.278 217.685 52.708 216.317 55.33C213.011 61.942 206.513 69.466 198.077 71.176C201.725 68.212 205.487 63.082 208.223 56.812C210.845 51.34 212.669 45.526 212.669 40.624Z" fill="#DFD4C0"/>
<path d="M258.687 54.076C258.231 52.594 256.521 52.822 255.039 54.874C251.391 60.004 245.463 65.818 238.509 70.036C243.183 59.206 249.111 48.148 252.417 41.764C253.899 38.914 254.469 36.406 254.469 34.126C254.469 31.732 254.013 30.022 252.303 28.312C251.049 27.058 249.567 27.286 247.971 29.338C245.235 33.442 242.157 40.396 234.519 53.278C228.933 62.74 223.803 69.466 220.839 69.466C217.875 69.466 218.901 64.906 220.497 60.802C222.663 55.444 225.057 50.77 228.933 44.614C231.555 40.396 232.923 37.09 232.923 34.24C232.923 32.416 231.897 30.364 230.757 28.768C229.503 26.944 227.793 27.058 226.311 28.996C219.243 38.686 213.657 50.2 211.035 57.382C210.009 60.232 209.553 62.968 209.553 65.362C209.553 70.15 212.061 74.482 217.761 74.482C221.181 74.482 224.145 73.456 227.109 71.29L225.399 75.28C214.341 79.726 205.107 86.68 201.573 96.484C200.889 98.536 200.547 100.474 200.547 101.842C200.547 105.49 202.257 108.91 203.967 111.304C206.703 114.952 209.097 114.952 211.719 113.926C221.637 110.164 229.389 91.924 235.659 76.876C245.007 73 252.531 68.782 257.091 61.828C259.029 58.864 259.257 55.9 258.687 54.076ZM222.435 82.69C219.699 88.846 216.963 94.432 214.569 98.65C211.377 104.236 208.983 107.542 208.185 106.858C207.045 105.832 207.843 101.158 210.693 95.8C213.087 91.354 216.963 86.452 222.435 82.69Z" fill="#DFD4C0"/>
<path d="M0.119629 164.196C0.119629 167.844 3.53963 172.404 8.32763 174.684C10.0376 175.482 11.6336 175.824 13.6856 175.824C15.0536 175.824 16.8776 175.71 18.4736 175.368C24.8576 173.886 34.0916 169.782 38.7656 164.652C41.9576 161.346 43.2116 157.584 43.2116 154.392C43.2116 149.946 40.4756 146.298 37.0556 144.246C44.4656 140.598 50.7356 135.126 53.5856 131.25C56.4356 127.602 58.4876 122.928 58.4876 118.938C58.4876 105.828 51.5336 101.61 43.5536 102.294C34.7756 103.092 24.7436 108.564 17.7896 109.02C15.5096 109.134 14.9396 110.16 15.6236 111.756C16.5356 113.58 18.7016 116.088 22.6916 116.658C14.7116 128.856 6.16163 145.386 1.82963 157.356C0.803629 159.978 0.119629 162.828 0.119629 164.196ZM29.0756 126.234C31.8116 121.104 32.6096 117.798 32.4956 115.29C39.9056 112.782 44.5796 111.072 47.6576 111.072C49.5956 111.072 51.5336 112.554 51.5336 114.948C51.6476 122.586 39.7916 134.784 21.0956 139.8C26.2256 131.364 27.8216 128.628 29.0756 126.234ZM32.8376 157.014C28.1636 162.828 18.7016 167.388 12.0896 168.186C9.69563 168.528 8.78363 167.388 9.80963 164.196C11.4056 159.18 14.1416 153.366 16.9916 147.78C19.3856 148.464 23.7176 148.236 28.0496 147.324C33.1796 147.78 35.2316 149.604 35.2316 151.656C35.2316 153.252 34.3196 155.19 32.8376 157.014Z" fill="#DFD4C0"/>
<path d="M63.94 119.394C62.8 120.648 62.116 122.244 62.116 124.068C62.116 125.322 62.458 126.804 63.256 128.286C65.308 132.162 69.64 132.39 71.578 129.996C72.946 128.4 73.972 124.98 72.49 121.902C70.666 118.14 66.448 116.658 63.94 119.394ZM86.398 121.56C82.408 121.56 74.884 130.224 74.884 136.038C74.884 138.09 75.682 139.914 77.962 141.054C71.92 157.698 58.924 171.036 54.022 171.036C53.224 171.036 52.426 170.124 52.426 168.414C52.426 164.424 56.302 156.672 59.722 150.858C62.686 145.842 65.308 139.914 65.308 136.152C65.308 133.644 64.624 131.82 63.484 130.566C61.888 128.856 60.52 129.084 58.924 131.25C56.644 134.442 47.866 148.008 44.446 158.496C43.648 161.232 43.192 163.74 43.192 165.792C43.192 171.378 46.042 175.71 52.198 175.71C64.738 175.71 76.366 160.776 84.574 142.08C87.196 141.966 90.274 141.396 93.466 139.914C88.906 145.272 84.802 151.314 82.18 158.04C81.382 160.434 81.04 162.486 81.04 164.31C81.04 170.922 85.03 175.824 92.212 175.824C98.938 175.824 107.374 171.036 110.224 164.082C111.592 160.662 111.364 157.698 110.794 156.444C109.654 154.05 107.83 154.164 106.918 156.444C103.384 164.424 97 171.492 93.01 171.492C91.414 171.492 90.502 169.554 90.502 166.704C90.502 164.994 90.844 163.284 91.414 161.574C93.238 155.76 98.71 148.008 103.726 142.308C104.98 140.712 105.664 139.116 105.664 137.748C105.664 134.784 104.182 132.504 102.358 130.11C100.99 128.4 99.28 128.97 97.228 130.338C93.238 133.074 90.616 134.442 87.31 135.24C88.792 131.478 89.704 127.83 89.704 125.322C89.704 122.928 88.792 121.56 86.398 121.56Z" fill="#DFD4C0"/>
<path d="M102.137 162.942C102.137 170.808 107.381 175.71 113.423 175.71C122.999 175.71 130.637 165.906 132.233 162.486C133.487 159.864 133.943 158.154 133.373 155.76C132.575 152.682 129.953 152.91 128.699 155.646C124.709 164.196 118.781 171.378 114.335 171.378C112.397 171.378 111.257 168.984 111.257 165.564C111.257 163.056 111.941 160.092 113.309 157.014C117.299 148.35 123.797 137.064 128.129 129.654C130.637 129.312 133.601 129.084 135.653 129.312C138.389 129.654 139.187 128.286 138.047 126.234C137.249 124.866 135.311 123.042 131.777 122.586C133.145 119.394 133.601 116.772 133.601 114.72C133.601 113.352 133.145 111.414 132.347 110.046C131.093 107.88 129.725 107.766 128.015 110.274C125.393 114.036 122.999 117.798 119.465 123.954C116.957 124.182 113.879 124.296 111.257 124.182C108.635 124.068 107.495 125.208 109.091 127.602C110.003 128.97 112.055 130.224 115.589 130.68C111.029 138.888 106.697 147.894 104.417 153.48C102.821 157.242 102.137 160.434 102.137 162.942Z" fill="#DFD4C0"/>
<path d="M170.294 163.512C172.004 160.092 171.206 157.47 170.636 156.102C169.724 154.164 167.9 154.392 167.102 156.102C163.682 163.056 157.64 171.15 153.65 171.15C152.054 171.15 151.484 169.668 151.484 167.274C151.484 165.45 151.94 163.056 152.966 160.548C154.22 157.812 157.07 153.024 163.34 141.852C164.252 140.256 164.594 138.66 164.594 137.064C164.594 132.618 161.288 129.084 157.982 129.084C155.816 129.084 151.826 130.452 148.406 132.96C149.546 131.364 156.614 120.762 158.894 117C161.63 112.212 162.998 107.994 162.998 104.916C162.998 103.32 162.656 101.838 162.086 100.584C161.06 98.304 159.35 97.848 157.526 100.128C148.292 111.984 125.72 150.174 121.16 162.144C118.31 169.668 119.906 172.404 121.73 174.57C123.098 176.28 124.808 175.938 125.72 173.886C128.456 167.046 132.56 159.18 136.436 152.796C142.478 142.992 153.308 135.81 154.334 135.81C155.132 135.81 153.422 138.546 151.256 142.308C146.924 149.034 141.338 158.952 141.338 166.134C141.338 172.062 144.758 175.824 152.282 175.824C159.578 175.824 166.988 170.124 170.294 163.512Z" fill="#DFD4C0"/>
<path d="M217.599 121.902C220.563 116.544 222.045 112.098 222.045 109.02C222.045 107.424 221.589 105.942 221.019 104.574C219.879 101.838 218.283 101.61 216.231 104.46C212.469 109.818 205.059 122.7 199.359 133.416C198.447 130.452 195.939 128.856 192.063 128.856C186.135 128.856 176.673 134.214 167.781 147.096C163.791 152.91 161.739 159.18 161.739 163.968C161.739 170.694 165.387 175.596 171.999 175.596C177.015 175.596 181.461 172.632 184.995 168.984C185.907 174 189.669 175.938 195.255 175.938C201.867 175.938 208.935 170.01 212.013 163.854C213.495 160.662 213.039 157.47 212.469 156.444C211.443 154.392 209.961 154.278 208.821 156.444C204.945 163.968 199.359 171.492 195.369 171.492C194.343 171.492 193.887 170.694 193.887 168.984C193.887 167.16 194.571 164.652 195.939 161.688C201.297 150.402 210.987 134.442 217.599 121.902ZM187.845 154.278C182.715 164.196 177.243 170.58 173.595 170.58C172.341 170.58 171.885 169.098 171.885 167.046C171.885 163.284 173.709 157.584 177.129 152.226C183.171 142.65 190.695 135.696 193.887 135.81C196.053 135.924 194.001 142.536 187.845 154.278Z" fill="#DFD4C0"/>
<path d="M211.257 146.982C207.153 152.682 205.101 159.066 205.101 163.968C205.101 170.694 208.749 175.596 215.475 175.596C220.035 175.596 225.165 172.062 228.471 168.87C229.383 173.088 232.689 176.052 238.389 176.052C245.343 176.052 252.639 170.01 255.603 163.74C257.199 160.434 256.515 157.356 256.059 156.33C254.919 153.936 253.893 154.05 252.639 156.33C248.877 163.74 243.177 171.492 239.073 171.492C237.933 171.492 237.477 170.466 237.477 168.756C237.477 161.118 247.053 148.692 250.017 142.422C252.981 136.494 251.955 131.478 250.017 129.198C248.649 127.602 246.711 127.716 245.343 129.996L243.177 133.53C242.151 130.566 239.643 128.514 235.539 128.514C229.725 128.514 220.377 133.872 211.257 146.982ZM216.957 170.58C215.817 170.58 215.361 169.212 215.361 167.16C215.361 163.512 217.299 157.47 220.719 152.112C226.533 142.764 234.399 135.582 236.679 135.582C237.819 135.582 238.047 136.38 238.047 137.748C238.047 140.712 235.995 146.298 231.549 154.05C225.963 163.626 220.719 170.58 216.957 170.58Z" fill="#DFD4C0"/>
<path d="M294.844 155.076C294.388 153.594 292.678 153.822 291.196 155.874C287.548 161.004 281.62 166.818 274.666 171.036C279.34 160.206 285.268 149.148 288.574 142.764C290.056 139.914 290.626 137.406 290.626 135.126C290.626 132.732 290.17 131.022 288.46 129.312C287.206 128.058 285.724 128.286 284.128 130.338C281.392 134.442 278.314 141.396 270.676 154.278C265.09 163.74 259.96 170.466 256.996 170.466C254.032 170.466 255.058 165.906 256.654 161.802C258.82 156.444 261.214 151.77 265.09 145.614C267.712 141.396 269.08 138.09 269.08 135.24C269.08 133.416 268.054 131.364 266.914 129.768C265.66 127.944 263.95 128.058 262.468 129.996C255.4 139.686 249.814 151.2 247.192 158.382C246.166 161.232 245.71 163.968 245.71 166.362C245.71 171.15 248.218 175.482 253.918 175.482C257.338 175.482 260.302 174.456 263.266 172.29L261.556 176.28C250.498 180.726 241.264 187.68 237.73 197.484C237.046 199.536 236.704 201.474 236.704 202.842C236.704 206.49 238.414 209.91 240.124 212.304C242.86 215.952 245.254 215.952 247.876 214.926C257.794 211.164 265.546 192.924 271.816 177.876C281.164 174 288.688 169.782 293.248 162.828C295.186 159.864 295.414 156.9 294.844 155.076ZM258.592 183.69C255.856 189.846 253.12 195.432 250.726 199.65C247.534 205.236 245.14 208.542 244.342 207.858C243.202 206.832 244 202.158 246.85 196.8C249.244 192.354 253.12 187.452 258.592 183.69Z" fill="#DFD4C0"/>
</g>
</svg>
