<svg width="105" height="105" viewBox="0 0 105 105" fill="none" xmlns="http://www.w3.org/2000/svg">
<path fill-rule="evenodd" clip-rule="evenodd" d="M96.25 56.875C96.1319 32.8256 76.5756 13.125 52.5 13.125C28.4244 13.125 8.86813 32.8256 8.75 56.875H19.6875C23.31 56.875 26.25 59.815 26.25 63.4375V94.0625C26.25 97.685 23.31 100.625 19.6875 100.625H6.5625C2.94 100.625 0 97.685 0 94.0625V56.875C0.118125 27.9956 23.5988 4.375 52.5 4.375C81.4012 4.375 104.882 27.9956 105 56.875V94.0625C105 97.685 102.06 100.625 98.4375 100.625H85.3125C81.69 100.625 78.75 97.685 78.75 94.0625V63.4375C78.75 59.815 81.69 56.875 85.3125 56.875H96.25Z" fill="#4B3915"/>
</svg>
