<?xml version="1.0" encoding="utf-8"?>
<!-- Generator: Adobe Illustrator 24.2.2, SVG Export Plug-In . SVG Version: 6.00 Build 0)  -->
<svg version="1.1" id="Layer_1" xmlns="http://www.w3.org/2000/svg" xmlns:xlink="http://www.w3.org/1999/xlink" x="0px" y="0px"
	 viewBox="0 0 80 102" style="enable-background:new 0 0 80 102;" xml:space="preserve">
<style type="text/css">
	.st0{clip-path:url(#SVGID_2_);}
	.st1{fill:#040000;}
	.st2{fill:#8A7145;}
</style>
<g>
	<g>
		<defs>
			<rect id="SVGID_1_" width="80" height="101.4"/>
		</defs>
		<clipPath id="SVGID_2_">
			<use xlink:href="#SVGID_1_"  style="overflow:visible;"/>
		</clipPath>
		<g class="st0">
			<path class="st1" d="M23.2,83.6c0,0.1,0,0.2-0.1,0.3L21,89.8c0,0.1-0.1,0.3-0.2,0.4l-0.1,0.1c-0.1,0-0.1,0-0.2,0s-0.1,0-0.2,0
				s-0.1-0.1-0.1-0.1c-0.1-0.1-0.1-0.3-0.2-0.4L17.9,84c0-0.1-0.1-0.2-0.1-0.3c0-0.1,0-0.2,0.1-0.2l0.1-0.1h0.1h0.1
				c0,0,0.1,0,0.1,0.1c0.1,0.1,0.1,0.2,0.1,0.3l2,5.8l2.1-5.8c0.1-0.3,0.2-0.4,0.4-0.4c0.1,0,0.2,0,0.2,0.1
				C23.2,83.4,23.2,83.5,23.2,83.6z"/>
			<path class="st1" d="M30.1,86.8c0,0.8-0.2,1.6-0.6,2.3c-0.3,0.4-0.7,0.7-1.1,0.9c-0.4,0.2-0.9,0.3-1.4,0.3s-1-0.1-1.4-0.3
				s-0.8-0.5-1.1-1c-0.4-0.7-0.7-1.5-0.6-2.3c0-0.8,0.2-1.6,0.6-2.3c0.3-0.4,0.7-0.7,1.1-0.9c0.4-0.2,0.9-0.3,1.4-0.3s1,0.1,1.4,0.3
				c0.4,0.2,0.8,0.5,1.1,1C29.9,85.2,30.2,86,30.1,86.8z M29.5,86.8c0-0.8-0.2-1.6-0.7-2.2c-0.3-0.3-0.6-0.6-1-0.7
				c-0.2-0.1-0.5-0.1-0.8-0.1s-0.7,0.1-1,0.2s-0.6,0.3-0.8,0.6c-0.5,0.6-0.7,1.4-0.7,2.2c0,0.8,0.2,1.6,0.7,2.2
				c0.2,0.3,0.5,0.5,0.8,0.6s0.6,0.2,1,0.2c0.3,0,0.7-0.1,1-0.2s0.6-0.3,0.8-0.6C29.3,88.4,29.5,87.6,29.5,86.8z"/>
			<path class="st1" d="M35.5,89.9c0,0.2-0.2,0.3-0.5,0.3h-3.2c-0.2,0-0.3,0-0.5-0.1c-0.1-0.1-0.1-0.2-0.1-0.4v-5.8
				c0-0.4,0.1-0.5,0.3-0.5c0.2,0,0.3,0.2,0.3,0.5v5.8H35C35.4,89.7,35.5,89.8,35.5,89.9z"/>
			<path class="st1" d="M41.8,90.1c0,0.1,0,0.2-0.1,0.2l-0.1,0.1h-0.1h-0.1c0,0-0.1,0-0.1-0.1c-0.1-0.1-0.1-0.2-0.1-0.3l-0.8-1.9
				h-3.2L36.4,90c0,0.1-0.1,0.2-0.1,0.3l-0.1,0.1h-0.1H36c0,0-0.1,0-0.1-0.1l-0.1-0.1v-0.1c0-0.1,0.1-0.2,0.1-0.4l2.4-5.8
				c0-0.1,0.1-0.3,0.2-0.4l0.1-0.1c0.1,0,0.1,0,0.2,0c0.1,0,0.1,0,0.2,0c0.1,0,0.1,0.1,0.1,0.1c0.1,0.1,0.2,0.3,0.2,0.4l2.5,5.8
				C41.8,89.8,41.8,89.9,41.8,90.1z M40.1,87.5l-1.4-3.4l-1.4,3.4H40.1z"/>
			<path class="st1" d="M47.8,89.7c0,0.2,0,0.4-0.1,0.6c-0.1,0.1-0.2,0.1-0.3,0.1s-0.3-0.1-0.5-0.4l-3.7-5.5v5.4c0,0.1,0,0.2,0,0.3
				c0,0.1-0.1,0.1-0.1,0.1c-0.1,0-0.1,0-0.2,0c-0.2,0-0.3-0.2-0.3-0.5v-5.9c0-0.1,0-0.3,0-0.4s0.1-0.1,0.1-0.2c0.1,0,0.1-0.1,0.2,0
				c0.1,0,0.3,0.1,0.4,0.4l3.8,5.6v-5.6c0-0.3,0.1-0.4,0.3-0.4s0.3,0.2,0.3,0.5L47.8,89.7z"/>
			<path class="st1" d="M54.8,86.8c0,0.6-0.1,1.2-0.3,1.7c-0.1,0.3-0.3,0.7-0.6,0.9c-0.3,0.3-0.6,0.5-0.9,0.6
				c-0.4,0.1-0.9,0.2-1.4,0.2h-1.8c-0.2,0-0.3,0-0.5-0.1c-0.1-0.1-0.1-0.3-0.1-0.4V84c0-0.2,0-0.3,0.1-0.4s0.3-0.1,0.5-0.1h1.8
				c0.5,0,0.9,0,1.4,0.2c0.3,0.1,0.7,0.3,0.9,0.6c0.3,0.3,0.5,0.6,0.6,0.9C54.7,85.6,54.8,86.2,54.8,86.8z M54.1,86.7
				c0-0.4-0.1-0.9-0.2-1.3c-0.1-0.3-0.2-0.5-0.4-0.7s-0.4-0.4-0.7-0.5C52.4,84,52,84,51.5,84h-1.6v5.7h1.6c0.4,0,0.9,0,1.3-0.2
				C53.7,89.1,54.1,88.2,54.1,86.7z"/>
			<path class="st1" d="M62,86.8c0,0.8-0.2,1.6-0.7,2.3c-0.3,0.4-0.7,0.7-1.1,0.9c-0.4,0.2-0.9,0.3-1.4,0.3s-1-0.1-1.4-0.3
				c-0.4-0.2-0.8-0.5-1.1-1c-0.4-0.7-0.7-1.5-0.6-2.3c0-0.8,0.2-1.6,0.6-2.3c0.3-0.4,0.7-0.7,1.1-0.9c0.4-0.2,0.9-0.3,1.4-0.3
				s1,0.1,1.4,0.3c0.4,0.2,0.8,0.5,1.1,1C61.8,85.2,62,86,62,86.8z M61.3,86.8c0-0.8-0.2-1.6-0.7-2.2c-0.3-0.3-0.6-0.6-1-0.7
				c-0.2-0.1-0.5-0.1-0.8-0.1s-0.7,0.1-1,0.2s-0.6,0.3-0.8,0.6c-0.5,0.6-0.7,1.4-0.7,2.2c0,0.8,0.2,1.6,0.7,2.2
				c0.2,0.3,0.5,0.5,0.8,0.6s0.6,0.2,1,0.2c0.3,0,0.7-0.1,1-0.2s0.6-0.3,0.8-0.6C61.1,88.4,61.4,87.6,61.3,86.8z"/>
			<path class="st2" d="M80,5.6c0-0.6,0-1.2,0-1.9c-0.2-2.9-1.5-4.4-3.6-3.5c-2.5,1.1-0.2,4.6,0,6.4c0.4,2.8,0.2,5.7-0.8,8.4
				c-3.2,4.5-9.2,9.6-20.6,13c-7.1,2.1-12.2,6-14.9,11.2c-2.8-5.3-7.9-9.2-15-11.2C13.3,24.5,7.4,19.2,4.4,15
				c-0.9-2.7-1.1-5.5-0.7-8.3c0.2-1.7,2.5-5.3,0-6.4c-2-0.9-3.3,0.6-3.6,3.5c0,0.6,0,1.2,0,1.8c0,0.7,0.2,4.5,3,8.9
				S11.9,25,24.9,28.8c8.4,2.5,12.6,6.9,14.7,11.3c-0.7,1.6-1.3,3.3-1.6,5c-0.8,4.8-0.2,9.7,1.6,14.3c-2.5,6.5-7.3,12.8-13.7,17.5
				c-3.6,2.2-5.9,1.4-6.8,0c-1.2-1.9-0.4-5.3,3.1-7.5l0,0c1.5-1.3,14.4-12.9,11.6-23.9c-1.8-7.1-9.6-12.2-23.3-15.4
				c-2.5-0.7-5-0.4-6.3,0.8c-0.3,0.3-0.6,0.7-0.7,1.1c-0.1,0.4-0.1,0.9,0,1.3c0.4,1.5,2.4,4.4,11.9,6.9c4.1,0.8,8.9,4.2,9.8,8.8
				c0.5,2.9-0.4,7.4-7.8,12.1c-2.9,1.7-5.8,2-7.5,0.7c-0.4-0.3-0.8-0.6-1-1.1s-0.3-1-0.2-1.4c0.2-1.3,1.4-2.4,3.4-2.9
				c0.2-0.1,5.8-1.9,5.7-6l0,0c-0.6-3.5-3.8-4.5-7-5.1c-0.1,0-0.2,0-0.3,0.1s-0.1,0.1-0.2,0.2c0,0.1,0,0.2,0.1,0.3s0.1,0.1,0.2,0.2
				c3,0.5,5.9,1.4,6.3,4.4c0.1,3.5-5.1,5.2-5.1,5.2c-2.2,0.6-3.7,1.9-3.9,3.5C8,59.7,8,60.4,8.3,61s0.7,1.1,1.2,1.4
				c2,1.4,5.2,1.2,8.4-0.7c7.8-4.9,8.7-9.7,8.2-12.9c-0.9-5-6-8.5-10.4-9.4c-9.6-2.6-11-5.5-11.2-6.4c-0.1-0.3-0.1-0.6,0-0.9
				c0.1-0.3,0.3-0.6,0.5-0.8c1.1-1,3.3-1.3,5.5-0.7c13.4,3.1,21,8.1,22.7,14.8c2.7,10.7-10.6,22.4-11.4,23.1
				c-3.9,2.5-4.7,6.4-3.3,8.6c0.4,0.6,0.9,1,1.5,1.3s1.3,0.4,1.9,0.4c1.6-0.1,3.2-0.6,4.5-1.5c6-4.4,10.7-10.3,13.6-17.1
				C42.9,67,47.7,73,53.7,77.4c1.3,0.9,2.9,1.4,4.4,1.5c0.7,0,1.3-0.1,1.9-0.4c0.6-0.3,1.1-0.8,1.5-1.3c1.4-2.2,0.6-6-3.3-8.6
				c-0.8-0.7-14-12.5-11.4-23.1c1.7-6.8,9.3-11.8,22.7-14.8c2.2-0.6,4.4-0.4,5.5,0.7c0.2,0.2,0.4,0.5,0.5,0.8s0.1,0.6,0,0.9
				c-0.2,0.8-1.7,3.8-11.3,6.4c-4.3,0.9-9.5,4.4-10.4,9.4c-0.6,3.2,0.4,7.9,8.2,12.9c3.2,1.8,6.3,2.1,8.4,0.7c0.5-0.3,1-0.8,1.2-1.4
				c0.3-0.6,0.4-1.2,0.3-1.9c-0.3-1.6-1.7-2.9-3.9-3.5c-0.1,0-5.2-1.7-5.1-5.2c0.5-3,3.3-3.9,6.3-4.4c0.1,0,0.1,0,0.1-0.1l0.1-0.1
				c0,0,0-0.1,0.1-0.1c0,0,0-0.1,0-0.2c0,0,0-0.1-0.1-0.1l-0.1-0.1c0,0-0.1,0-0.1-0.1h-0.1c-3.1,0.5-6.4,1.6-7,5.1l0,0
				c-0.1,4.1,5.4,5.9,5.7,6c1.9,0.5,3.2,1.6,3.4,2.9c0.1,0.5,0,1-0.2,1.4c-0.2,0.5-0.5,0.8-1,1.1c-1.8,1.2-4.6,1-7.5-0.7
				c-7.4-4.7-8.4-9.2-7.8-12.1c0.9-4.6,5.7-8,9.8-8.8c9.4-2.5,11.4-5.4,11.8-6.9c0.1-0.4,0.1-0.9,0-1.3c-0.1-0.4-0.4-0.8-0.7-1.1
				c-1.3-1.2-3.8-1.6-6.2-0.9C55.6,33.3,47.8,38.4,46,45.5c-2.8,11,10.2,22.6,11.6,23.9l0,0c3.5,2.3,4.3,5.6,3.1,7.5
				c-0.9,1.4-3.2,2.2-6.8,0c-6.4-4.8-11.2-11-13.7-17.6c1.8-4.5,2.4-9.5,1.6-14.3c-0.3-1.7-0.8-3.4-1.6-5c2.1-4.4,6.4-8.8,14.7-11.3
				c12.9-3.8,19-9.9,21.8-14.3C80,9.6,80,5.8,80,5.6L80,5.6z M41.2,45.2c0.7,4.4,0.3,8.9-1.2,13c-1.5-4.2-2-8.6-1.3-13
				c0.3-1.5,0.7-2.9,1.3-4.3C40.6,42.3,41,43.7,41.2,45.2z"/>
		</g>
	</g>
</g>
</svg>
