<svg width="116" height="147" viewBox="0 0 116 147" fill="none" xmlns="http://www.w3.org/2000/svg">
<mask id="mask0_112_100" style="mask-type:luminance" maskUnits="userSpaceOnUse" x="0" y="0" width="116" height="147">
<path d="M116 0H0V146.135H116V0Z" fill="white"/>
</mask>
<g mask="url(#mask0_112_100)">
<path d="M33.6401 120.482C33.6401 120.626 33.6401 120.771 33.4951 120.915L30.4501 129.418C30.4501 129.562 30.3051 129.85 30.1601 129.994L30.0151 130.138C29.8701 130.138 29.8701 130.138 29.7251 130.138C29.5801 130.138 29.5801 130.138 29.4351 130.138C29.2901 130.138 29.2901 129.994 29.2901 129.994C29.1451 129.85 29.1451 129.562 29.0001 129.418L25.9551 121.059C25.9551 120.915 25.8101 120.771 25.8101 120.626C25.8101 120.482 25.8101 120.338 25.9551 120.338L26.1001 120.194H26.2451H26.3901C26.3901 120.194 26.5351 120.194 26.5351 120.338C26.6801 120.482 26.6801 120.626 26.6801 120.771L29.5801 129.129L32.6251 120.771C32.7701 120.338 32.9151 120.194 33.2051 120.194C33.3501 120.194 33.4951 120.194 33.4951 120.338C33.6401 120.194 33.6401 120.338 33.6401 120.482Z" fill="#040000"/>
<path d="M43.6451 125.094C43.6451 126.247 43.3551 127.4 42.7751 128.409C42.3401 128.985 41.7601 129.418 41.1801 129.706C40.6001 129.994 39.8751 130.138 39.1501 130.138C38.4251 130.138 37.7001 129.994 37.1201 129.706C36.5401 129.418 35.9601 128.985 35.5251 128.265C34.9451 127.256 34.5101 126.103 34.6551 124.95C34.6551 123.797 34.9451 122.644 35.5251 121.635C35.9601 121.059 36.5401 120.626 37.1201 120.338C37.7001 120.05 38.4251 119.906 39.1501 119.906C39.8751 119.906 40.6001 120.05 41.1801 120.338C41.7601 120.626 42.3401 121.059 42.7751 121.779C43.3551 122.788 43.7901 123.941 43.6451 125.094ZM42.7751 125.094C42.7751 123.941 42.4851 122.788 41.7601 121.924C41.3251 121.491 40.8901 121.059 40.3101 120.915C40.0201 120.771 39.5851 120.771 39.1501 120.771C38.7151 120.771 38.1351 120.915 37.7001 121.059C37.2651 121.203 36.8301 121.491 36.5401 121.924C35.8151 122.788 35.5251 123.941 35.5251 125.094C35.5251 126.247 35.8151 127.4 36.5401 128.265C36.8301 128.697 37.2651 128.985 37.7001 129.129C38.1351 129.274 38.5701 129.418 39.1501 129.418C39.5851 129.418 40.1651 129.274 40.6001 129.129C41.0351 128.985 41.4701 128.697 41.7601 128.265C42.4851 127.4 42.7751 126.247 42.7751 125.094Z" fill="#040000"/>
<path d="M51.475 129.562C51.475 129.85 51.185 129.994 50.75 129.994H46.11C45.82 129.994 45.675 129.994 45.385 129.85C45.24 129.706 45.24 129.562 45.24 129.273V120.915C45.24 120.338 45.385 120.194 45.675 120.194C45.965 120.194 46.11 120.482 46.11 120.915V129.273H50.75C51.33 129.273 51.475 129.418 51.475 129.562Z" fill="#040000"/>
<path d="M60.61 129.85C60.61 129.994 60.61 130.138 60.465 130.138L60.32 130.282H60.175H60.03C60.03 130.282 59.885 130.282 59.885 130.138C59.74 129.994 59.74 129.85 59.74 129.706L58.58 126.968H53.94L52.78 129.706C52.78 129.85 52.635 129.994 52.635 130.138L52.49 130.282H52.345H52.2C52.2 130.282 52.055 130.282 52.055 130.138L51.91 129.994V129.85C51.91 129.706 52.055 129.562 52.055 129.273L55.535 120.915C55.535 120.771 55.68 120.482 55.825 120.338L55.97 120.194C56.115 120.194 56.115 120.194 56.26 120.194C56.405 120.194 56.405 120.194 56.55 120.194C56.695 120.194 56.695 120.338 56.695 120.338C56.84 120.482 56.985 120.771 56.985 120.915L60.61 129.273C60.61 129.418 60.61 129.562 60.61 129.85ZM58.145 126.103L56.115 121.203L54.085 126.103H58.145Z" fill="#040000"/>
<path d="M69.31 129.274C69.31 129.562 69.31 129.85 69.165 130.138C69.02 130.282 68.875 130.282 68.73 130.282C68.585 130.282 68.295 130.138 68.005 129.706L62.64 121.779V129.562C62.64 129.706 62.64 129.85 62.64 129.994C62.64 130.138 62.495 130.138 62.495 130.138C62.35 130.138 62.35 130.138 62.205 130.138C61.915 130.138 61.77 129.85 61.77 129.418V120.915C61.77 120.771 61.77 120.482 61.77 120.338C61.77 120.194 61.915 120.194 61.915 120.05C62.06 120.05 62.06 119.906 62.205 120.05C62.35 120.05 62.64 120.194 62.785 120.626L68.295 128.697V120.626C68.295 120.194 68.44 120.05 68.73 120.05C69.02 120.05 69.165 120.338 69.165 120.771L69.31 129.274Z" fill="#040000"/>
<path d="M79.46 125.094C79.46 125.959 79.315 126.824 79.025 127.544C78.88 127.976 78.59 128.553 78.155 128.841C77.72 129.274 77.285 129.562 76.85 129.706C76.27 129.85 75.545 129.994 74.82 129.994H72.21C71.92 129.994 71.775 129.994 71.485 129.85C71.34 129.706 71.34 129.418 71.34 129.274V121.059C71.34 120.771 71.34 120.626 71.485 120.482C71.63 120.338 71.92 120.338 72.21 120.338H74.82C75.545 120.338 76.125 120.338 76.85 120.626C77.285 120.771 77.865 121.059 78.155 121.491C78.59 121.924 78.88 122.356 79.025 122.788C79.315 123.365 79.46 124.229 79.46 125.094ZM78.445 124.95C78.445 124.374 78.3 123.653 78.155 123.076C78.01 122.644 77.865 122.356 77.575 122.068C77.285 121.779 76.995 121.491 76.56 121.347C75.98 121.059 75.4 121.059 74.675 121.059H72.355V129.274H74.675C75.255 129.274 75.98 129.274 76.56 128.985C77.865 128.409 78.445 127.112 78.445 124.95Z" fill="#040000"/>
<path d="M89.9 125.094C89.9 126.247 89.61 127.4 88.885 128.409C88.45 128.985 87.87 129.418 87.29 129.706C86.71 129.994 85.985 130.138 85.26 130.138C84.535 130.138 83.81 129.994 83.23 129.706C82.65 129.418 82.07 128.985 81.635 128.265C81.055 127.256 80.62 126.103 80.765 124.95C80.765 123.797 81.055 122.644 81.635 121.635C82.07 121.059 82.65 120.626 83.23 120.338C83.81 120.05 84.535 119.906 85.26 119.906C85.985 119.906 86.71 120.05 87.29 120.338C87.87 120.626 88.45 121.059 88.885 121.779C89.61 122.788 89.9 123.941 89.9 125.094ZM88.885 125.094C88.885 123.941 88.595 122.788 87.87 121.924C87.435 121.491 87 121.059 86.42 120.915C86.13 120.771 85.695 120.771 85.26 120.771C84.825 120.771 84.245 120.915 83.81 121.059C83.375 121.203 82.94 121.491 82.65 121.924C81.925 122.788 81.635 123.941 81.635 125.094C81.635 126.247 81.925 127.4 82.65 128.265C82.94 128.697 83.375 128.985 83.81 129.129C84.245 129.274 84.68 129.418 85.26 129.418C85.695 129.418 86.275 129.274 86.71 129.129C87.145 128.985 87.58 128.697 87.87 128.265C88.595 127.4 89.03 126.247 88.885 125.094Z" fill="#040000"/>
<path d="M116 8.07058C116 7.20588 116 6.34117 116 5.33235C115.71 1.15294 113.825 -1.00883 110.78 0.288232C107.155 1.87353 110.49 6.91764 110.78 9.51176C111.36 13.5471 111.07 17.7265 109.62 21.6176C104.98 28.1029 96.28 35.4529 79.75 40.3529C69.455 43.3794 62.06 49 58.145 56.4941C54.085 48.8559 46.69 43.2353 36.395 40.3529C19.285 35.3088 10.73 27.6706 6.38002 21.6176C5.07502 17.7265 4.78502 13.6912 5.36502 9.65588C5.65502 7.20588 8.99002 2.01764 5.36502 0.43235C2.46502 -0.864709 0.58002 1.29706 0.14502 5.47647C0.14502 6.34117 0.14502 7.20588 0.14502 8.07058C0.14502 9.07941 0.43502 14.5559 4.49502 20.8971C8.55502 27.2382 17.255 36.0294 36.105 41.5059C48.285 45.1088 54.375 51.45 57.42 57.7912C56.405 60.097 55.535 62.547 55.1 64.997C53.94 71.9147 54.81 78.9765 57.42 85.6059C53.795 94.9735 46.835 104.053 37.555 110.826C32.335 113.997 29 112.844 27.695 110.826C25.955 108.088 27.115 103.188 32.19 100.018C34.365 98.1441 53.07 81.4265 49.01 65.5735C46.4 55.3412 35.09 47.9912 15.225 43.3794C11.6 42.3706 7.97502 42.8029 6.09002 44.5323C5.65502 44.9647 5.22002 45.5412 5.07502 46.1176C4.93002 46.6941 4.93002 47.4147 5.07502 47.9912C5.65502 50.1529 8.55502 54.3323 22.33 57.9353C28.275 59.0882 35.235 63.9882 36.54 70.6176C37.265 74.7971 35.96 81.2823 25.23 88.0559C21.025 90.5059 16.82 90.9382 14.355 89.0647C13.775 88.6323 13.195 88.2 12.905 87.4794C12.615 86.7588 12.47 86.0382 12.615 85.4618C12.905 83.5882 14.645 82.0029 17.545 81.2823C17.835 81.1382 25.955 78.5441 25.81 72.6353C24.94 67.5912 20.3 66.15 15.66 65.2853C15.515 65.2853 15.37 65.2853 15.225 65.4294C15.08 65.5735 15.08 65.5735 14.935 65.7176C14.935 65.8618 14.935 66.0059 15.08 66.15C15.225 66.2941 15.225 66.2941 15.37 66.4382C19.72 67.1588 23.925 68.4559 24.505 72.7794C24.65 77.8235 17.11 80.2735 17.11 80.2735C13.92 81.1382 11.745 83.0118 11.455 85.3176C11.6 86.0382 11.6 87.0471 12.035 87.9118C12.47 88.7765 13.05 89.4971 13.775 89.9294C16.675 91.9471 21.315 91.6588 25.955 88.9206C37.265 81.8588 38.57 74.9412 37.845 70.3294C36.54 63.1235 29.145 58.0794 22.765 56.7823C8.84502 53.0353 6.81502 48.8559 6.52502 47.5588C6.38002 47.1265 6.38002 46.6941 6.52502 46.2618C6.67002 45.8294 6.96002 45.3971 7.25002 45.1088C8.84502 43.6676 12.035 43.2353 15.225 44.1C34.655 48.5676 45.675 55.7735 48.14 65.4294C52.055 80.85 32.77 97.7118 31.61 98.7206C25.955 102.324 24.795 107.944 26.825 111.115C27.405 111.979 28.13 112.556 29 112.988C29.87 113.421 30.885 113.565 31.755 113.565C34.075 113.421 36.395 112.7 38.28 111.403C46.98 105.062 53.795 96.5588 58 86.7588C62.205 96.5588 69.165 105.206 77.865 111.547C79.75 112.844 82.07 113.565 84.245 113.709C85.26 113.709 86.13 113.565 87 113.132C87.87 112.7 88.595 111.979 89.175 111.259C91.205 108.088 90.045 102.612 84.39 98.8647C83.23 97.8559 64.09 80.85 67.86 65.5735C70.325 55.7735 81.345 48.5676 100.775 44.2441C103.965 43.3794 107.155 43.6676 108.75 45.2529C109.04 45.5412 109.33 45.9735 109.475 46.4059C109.62 46.8382 109.62 47.2706 109.475 47.7029C109.185 48.8559 107.01 53.1794 93.09 56.9265C86.855 58.2235 79.315 63.2676 78.01 70.4735C77.14 75.0853 78.59 81.8588 89.9 89.0647C94.54 91.6588 99.035 92.0912 102.08 90.0735C102.805 89.6412 103.53 88.9206 103.82 88.0559C104.255 87.1912 104.4 86.3265 104.255 85.3176C103.82 83.0118 101.79 81.1382 98.6 80.2735C98.455 80.2735 91.06 77.8235 91.205 72.7794C91.93 68.4559 95.99 67.1588 100.34 66.4382C100.485 66.4382 100.485 66.4382 100.485 66.2941L100.63 66.15C100.63 66.15 100.63 66.0059 100.775 66.0059C100.775 66.0059 100.775 65.8618 100.775 65.7176C100.775 65.7176 100.775 65.5735 100.63 65.5735L100.485 65.4294C100.485 65.4294 100.34 65.4294 100.34 65.2853H100.195C95.7 66.0059 90.915 67.5912 90.045 72.6353C89.9 78.5441 97.875 81.1382 98.31 81.2823C101.065 82.0029 102.95 83.5882 103.24 85.4618C103.385 86.1823 103.24 86.9029 102.95 87.4794C102.66 88.2 102.225 88.6323 101.5 89.0647C98.89 90.7941 94.83 90.5059 90.625 88.0559C79.895 81.2823 78.445 74.7971 79.315 70.6176C80.62 63.9882 87.58 59.0882 93.525 57.9353C107.155 54.3323 110.055 50.1529 110.635 47.9912C110.78 47.4147 110.78 46.6941 110.635 46.1176C110.49 45.5412 110.055 44.9647 109.62 44.5323C107.735 42.8029 104.11 42.2265 100.63 43.2353C80.62 47.9912 69.31 55.3412 66.7 65.5735C62.64 81.4265 81.49 98.1441 83.52 100.018C88.595 103.332 89.755 108.088 88.015 110.826C86.71 112.844 83.375 113.997 78.155 110.826C68.875 103.909 61.915 94.9735 58.29 85.4618C60.9 78.9765 61.77 71.7706 60.61 64.8529C60.175 62.4029 59.45 59.9529 58.29 57.6471C61.335 51.3059 67.57 44.9647 79.605 41.3618C98.31 35.8853 107.155 27.0941 111.215 20.7529C116 13.8353 116 8.35882 116 8.07058ZM59.74 65.1412C60.755 71.4823 60.175 77.9676 58 83.8765C55.825 77.8235 55.1 71.4823 56.115 65.1412C56.55 62.9794 57.13 60.9618 58 58.9441C58.87 60.9618 59.45 62.9794 59.74 65.1412Z" fill="#8A7145"/>
</g>
</svg>
