<svg width="238" height="77" viewBox="0 0 238 77" fill="none" xmlns="http://www.w3.org/2000/svg">
<path d="M97.112 12.72L93.608 12.168C93.128 14.856 91.88 17.952 90.248 19.68L90.488 19.896C93.128 18.384 95.144 15.768 96.248 13.104C96.872 13.128 97.064 12.984 97.112 12.72ZM96.248 1.55997L92.648 0.599976C92.24 3.67197 91.352 6.95998 90.368 9.11998L90.68 9.28797C92.624 7.60797 94.208 5.06398 95.336 2.08798C95.888 2.06398 96.152 1.84798 96.248 1.55997ZM91.376 13.536L91.04 13.728C92.6 19.296 96.032 21.624 101.24 22.992C101.552 21.696 102.296 20.808 103.4 20.52V20.256C97.928 19.632 93.2 18.024 91.376 13.536ZM98.264 14.568H98.552C97.208 18.648 93.8 21.408 88.544 22.872L88.664 23.232C95.072 22.32 99.176 19.848 101.264 15.696C101.816 15.648 102.056 15.576 102.224 15.336L99.8 13.176L98.264 14.568ZM100.208 14.568H93.752L93.248 15.264H100.208V14.568ZM94.592 12.36V6.69598H100.688V6.02398H94.712L92.168 4.99197V13.104H92.504C93.512 13.104 94.592 12.576 94.592 12.36ZM98.768 6.02398H99.008V12.816H99.416C100.232 12.816 101.408 12.312 101.432 12.12V7.10397C101.912 7.00798 102.248 6.79198 102.392 6.59998L99.9201 4.75198L98.768 6.02398ZM100.232 11.4H93.296V12.096H100.232V11.4ZM100.16 8.66398H93.248V9.35998H100.16V8.66398ZM100.304 1.51198L98.84 3.47998H92.984V4.15198H102.32C102.68 4.15198 102.92 4.03198 102.992 3.76797C101.984 2.85598 100.304 1.51198 100.304 1.51198ZM86.84 6.21597V5.83197H84.056C83.36 8.13598 82.064 10.512 80.288 12.192L80.528 12.504C83.384 10.992 85.64 8.87998 86.84 6.21597ZM87.08 11.736V2.66397L84.584 3.26398V12.432H85.04C86.288 12.432 87.08 11.88 87.08 11.736ZM84.392 21.984V13.632H88.592V12.936H84.488L81.944 11.904V22.776H82.304C83.336 22.776 84.392 22.224 84.392 21.984ZM87.08 12.936H87.296V21.936H87.704C88.544 21.936 89.792 21.432 89.816 21.24V13.92C90.2 13.848 90.488 13.68 90.632 13.512L88.232 11.712L87.08 12.936ZM88.808 19.872H83.072V20.568H88.808V19.872ZM88.784 16.344H83.048V17.04H88.784V16.344ZM90.416 3.14398L87.776 0.647975C86.24 1.60798 83.216 2.95197 80.792 3.69598L80.864 4.03198C83.672 3.95998 86.888 3.55197 88.928 3.09597C89.624 3.38398 90.128 3.35998 90.416 3.14398ZM86.816 7.07998L86.6 7.24798C87.44 8.06397 88.376 9.43198 88.592 10.632C90.824 12.216 92.864 7.84798 86.816 7.07998ZM89.288 4.15198L88.016 5.83197H80.672L80.864 6.52798H90.968C91.304 6.52798 91.544 6.40797 91.592 6.14398C90.728 5.32797 89.288 4.15198 89.288 4.15198Z" fill="#4B3915"/>
<path d="M120.032 22.272V17.232H117.824V22.896H118.208C119.336 22.896 120.032 22.392 120.032 22.272ZM120.968 10.416L117.752 10.128V13.92H118.112V13.968H117.992V17.232H118.304C119.168 17.232 119.84 17.208 119.936 17.184V13.968H119.816V13.92H120.2V10.992C120.752 10.92 120.92 10.752 120.968 10.416ZM125.648 0.935976L122.36 0.647975V5.44798H122.84C123.8 5.44798 125.024 5.03998 125.024 4.84798V1.43997C125.48 1.36798 125.624 1.17598 125.648 0.935976ZM115.76 0.911976L112.472 0.623975V5.39998H112.952C113.912 5.39998 115.112 4.99197 115.112 4.82398V1.41597C115.568 1.34397 115.736 1.15198 115.76 0.911976ZM128.024 1.15198L126.8 2.87998H119.576L119.768 3.55197H129.656C129.992 3.55197 130.208 3.43197 130.28 3.16798C129.464 2.35198 128.024 1.15198 128.024 1.15198ZM116.984 1.15198L115.76 2.87998H107.816L108.008 3.55197H118.616C118.952 3.55197 119.168 3.43197 119.24 3.16798C118.424 2.35198 116.984 1.15198 116.984 1.15198ZM115.4 5.92798H115.592V11.352H116.048C116.888 11.352 118.136 10.824 118.16 10.632V6.88798C118.544 6.83998 118.832 6.67198 118.952 6.50398L116.552 4.72797L115.4 5.92798ZM116.384 9.93598H110.96V10.632H116.384V9.93598ZM116.384 7.91998H110.96V8.59198H116.384V7.91998ZM126.92 9.91197H121.424V10.608H126.92V9.91197ZM126.92 7.91998H121.424V8.59198H126.92V7.91998ZM111.632 22.176V6.62397H116.48V5.92798H111.752L109.064 4.79998V23.088H109.496C110.648 23.088 111.632 22.464 111.632 22.176ZM122.288 10.584V6.62397H127.16V5.92798H122.384L119.696 4.87197V11.376H120.056C121.112 11.376 122.288 10.8 122.288 10.584ZM126.008 5.92798H126.248V19.848C126.248 20.112 126.176 20.28 125.864 20.28C125.432 20.28 124.136 20.16 124.136 20.16V20.496C124.928 20.64 125.264 20.976 125.504 21.336C125.72 21.72 125.792 22.344 125.816 23.184C128.552 22.92 128.912 21.936 128.912 20.112V7.05598C129.392 6.95998 129.728 6.76798 129.896 6.57598L127.256 4.51198L126.008 5.92798ZM122.6 14.88L120.824 14.424C120.68 15.24 120.416 16.344 120.2 17.016L120.632 17.184C121.088 16.728 121.544 15.96 121.832 15.36C122.288 15.312 122.504 15.144 122.6 14.88ZM116.096 14.592L115.808 14.736C116.168 15.216 116.456 16.056 116.408 16.728C117.416 17.736 118.808 15.744 116.096 14.592ZM119.768 17.88L119.552 18.096C120.632 18.816 121.952 20.184 122.384 21.336C124.352 22.368 125.408 18.528 119.768 17.88ZM115.52 17.952V14.28H123.464V13.608H115.664L113.576 12.744V18.528H113.84C114.632 18.528 115.52 18.096 115.52 17.952ZM122.096 13.608H122.288V18.264H122.624C123.272 18.264 124.232 17.856 124.256 17.688V14.472C124.568 14.4 124.856 14.256 124.952 14.112L123.008 12.672L122.096 13.608ZM123.32 16.92H114.896V17.616H123.32V16.92ZM119.576 17.472V17.088H117.152C116.216 18.888 114.56 20.568 112.496 21.744L112.712 22.128C115.688 21.096 118.16 19.584 119.576 17.472ZM123.608 10.608L122.528 11.904H112.544L112.736 12.6H124.952C125.288 12.6 125.528 12.48 125.576 12.216C124.808 11.52 123.608 10.608 123.608 10.608Z" fill="#4B3915"/>
<path d="M143.072 17.28C143.84 17.304 144.176 17.112 144.296 16.824L140.672 15C139.712 17.016 137.12 20.088 134.504 21.768L134.648 22.008C138.128 21.048 141.248 19.08 143.072 17.28ZM148.52 15.696L148.352 15.912C150.416 17.28 153.152 19.632 154.496 21.6C157.856 22.872 158.792 16.56 148.52 15.696ZM148.376 9.95998L144.512 9.59997V23.16H145.04C146.192 23.16 147.512 22.584 147.512 22.344V10.632C148.16 10.536 148.328 10.272 148.376 9.95998ZM148.928 2.20797H149.192V7.60798C149.192 9.35998 149.504 9.88797 151.64 9.88797H153.296C156.272 9.88797 157.256 9.35998 157.256 8.25598C157.256 7.75198 157.04 7.46398 156.344 7.15198L156.224 7.12798H155.984C155.792 7.17598 155.528 7.22398 155.36 7.24798C155.216 7.27198 154.904 7.29598 154.736 7.29598C154.52 7.29598 154.088 7.31997 153.68 7.31997H152.48C152.048 7.31997 151.976 7.19997 151.976 6.93598V3.09597C152.408 3.02398 152.696 2.90398 152.84 2.73598L150.32 0.719975L148.928 2.20797ZM140.072 1.96797V4.65597C140.072 6.95997 139.424 9.47998 135.416 11.4L135.56 11.64C142.184 10.08 142.928 6.93598 142.928 4.65597V2.20797H143.36L140.072 1.03198V1.96797ZM150.152 2.20797H141.608V2.87998H150.152V2.20797ZM154.496 11.064L152.96 12.936H135.2L135.392 13.632H156.608C156.968 13.632 157.208 13.512 157.28 13.248C156.224 12.336 154.496 11.064 154.496 11.064Z" fill="#4B3915"/>
<path d="M22.628 57.376H18.416C18.416 65.188 17.336 71.2 10.82 75.772L11.036 76.204C20.072 72.676 22.232 66.304 22.628 57.376ZM14.924 43.552V60.292H15.608C17.66 60.292 18.848 59.608 18.848 59.32V46.252H27.272V59.68H27.992C30.08 59.68 31.412 58.96 31.412 58.78V46.54C32.204 46.396 32.564 46.18 32.816 45.856L29.072 43.012L27.128 45.208H19.244L14.924 43.552ZM27.668 57.412H23.924V71.92C23.924 74.332 24.356 75.16 27.164 75.16H29.216C33.104 75.16 34.364 74.368 34.364 72.892C34.364 72.172 34.148 71.74 33.248 71.308L33.14 66.52H32.744C32.204 68.5 31.664 70.516 31.376 71.128C31.196 71.416 31.052 71.488 30.764 71.524C30.512 71.524 30.116 71.524 29.612 71.524H28.352C27.776 71.524 27.668 71.38 27.668 70.912V58.636C27.668 58.312 27.668 57.844 27.668 57.412ZM29.864 57.376H17.948V58.42H29.864V57.376ZM4.34004 42.292L4.01604 42.472C4.91604 43.876 5.85204 45.964 5.96004 47.872C9.41604 50.896 13.7 44.344 4.34004 42.292ZM9.34404 74.98V56.692L5.42004 59.968V76.276H6.14004C8.08404 76.276 9.34404 75.268 9.34404 74.98ZM9.12804 57.988L8.76804 58.204C9.88404 59.752 11.144 62.02 11.432 64.036C14.744 66.736 18.308 60.328 9.12804 57.988ZM8.73204 50.212H9.20004C7.97604 55.216 4.41204 61.588 0.092041 65.872L0.452042 66.196C6.03204 62.956 10.82 57.232 13.088 52.12C13.952 52.048 14.384 51.94 14.708 51.616L10.964 48.016L8.73204 50.212ZM11.252 50.212H0.452042L0.776043 51.22H11.252V50.212Z" fill="#4B3915"/>
<path d="M66.62 50.32L61.328 49.852V63.604H62.084C63.596 63.604 65.288 63.064 65.288 62.812V51.328C66.224 51.184 66.548 50.824 66.62 50.32ZM53.804 44.632L48.08 42.436C46.46 48.124 43.508 53.776 40.772 57.268L41.168 57.556C45.56 54.892 49.412 50.788 52.328 45.28C53.12 45.352 53.624 45.064 53.804 44.632ZM51.068 50.5L47.36 49.132L45.74 51.292V63.892H46.532C48.188 63.892 49.916 63.064 49.952 62.776V51.148C50.6 51.04 50.96 50.824 51.068 50.5ZM68.672 46.972H69.068C68.852 48.34 68.276 50.68 67.772 52.12L68.132 52.372C69.788 51.544 72.02 50.032 73.316 48.844C74.036 48.808 74.432 48.7 74.684 48.412L70.868 44.776L68.672 46.972ZM71.336 46.972H57.44V48.016H71.336V46.972ZM61.508 44.128L55.82 42.364C54.956 47.008 53.228 51.724 51.428 54.712L51.824 55.036C55.172 52.768 58.016 49.312 60.068 44.848C60.932 44.848 61.364 44.56 61.508 44.128ZM61.148 53.956L56.072 52.12C55.172 55.864 53.516 59.32 51.68 61.516L52.076 61.876C55.064 60.436 57.8 58.06 59.708 54.604C60.536 54.676 61.004 54.388 61.148 53.956ZM66.98 53.092L66.656 53.308C68.276 55.36 70.004 58.384 70.4 60.976C74.216 64 77.708 56.224 66.98 53.092ZM55.28 63.964L49.916 63.532V71.884C49.916 74.656 50.888 75.34 54.956 75.34H59.528C66.548 75.34 68.276 74.836 68.276 73.036C68.276 72.28 67.952 71.812 66.692 71.38L66.62 67.204H66.224C65.468 69.22 64.928 70.66 64.46 71.236C64.208 71.632 63.992 71.74 63.416 71.776C62.804 71.812 61.436 71.812 59.924 71.812H55.676C54.344 71.812 54.164 71.668 54.164 71.164V64.864C54.884 64.756 55.208 64.432 55.28 63.964ZM46.82 64.324H46.316C46.388 66.664 44.948 68.716 43.58 69.544C42.5 70.084 41.78 71.056 42.176 72.28C42.68 73.54 44.3 73.792 45.488 73.036C47.252 71.92 48.584 68.824 46.82 64.324ZM67.124 63.784L66.8 64C68.492 66.088 70.004 69.22 70.076 71.956C73.892 75.268 77.744 67.06 67.124 63.784ZM56.396 62.416L56.072 62.632C57.476 64.108 59.024 66.484 59.42 68.464C62.912 71.056 66.116 64.216 56.396 62.416Z" fill="#4B3915"/>
<path d="M81.74 73.396L82.028 74.44H114.5C115.076 74.44 115.436 74.26 115.544 73.864C113.78 72.316 110.828 70.12 110.828 70.12L108.236 73.396H81.74ZM86.024 61.552L86.312 62.56H111.476C111.98 62.56 112.376 62.38 112.484 61.984C110.756 60.544 107.876 58.42 107.876 58.42L105.356 61.552H86.024ZM88.256 51.328L87.716 52.336H112.484C113.06 52.336 113.42 52.192 113.528 51.796C111.764 50.248 108.992 48.268 108.992 48.268L106.508 51.328H88.256ZM96.176 42.652V73.972H100.82V44.236C101.792 44.092 102.08 43.732 102.152 43.192L96.176 42.652ZM88.112 43.696C86.888 50.212 84.152 56.728 81.416 60.868L81.812 61.156C86.456 57.88 90.2 52.948 92.7561 46.252C93.5841 46.252 94.052 45.928 94.196 45.496L88.112 43.696Z" fill="#4B3915"/>
<path d="M130.016 58.6V59.644H148.7V58.6H130.016ZM130.016 71.452V72.46H148.7V71.452H130.016ZM146.612 46.288V75.7H147.332C149.024 75.7 151.148 74.656 151.184 74.296V48.052C151.904 47.872 152.372 47.584 152.624 47.26L148.412 43.912L146.252 46.288H146.612ZM127.964 46.288V76.024H128.684C130.628 76.024 132.392 74.908 132.392 74.368V47.332H149.168V46.288H132.68L127.964 44.344V46.288Z" fill="#4B3915"/>
<path d="M186.212 63.892L185.816 64.144C188.156 67.132 190.928 71.452 191.792 75.016C196.04 78.256 199.064 69.4 186.212 63.892ZM186.284 42.976L180.704 42.436V56.008C180.704 63.712 179.336 70.876 172.892 75.844L173.216 76.204C182.648 72.172 184.916 64.396 184.988 56.044V44.02C185.924 43.876 186.212 43.48 186.284 42.976ZM187.868 49.168H188.228V60.868H192.26V50.752C193.016 50.608 193.52 50.356 193.736 50.068L189.848 47.08L187.868 49.168ZM193.952 57.592L192.152 60.436H173.72L174.008 61.48H196.292C196.76 61.48 197.12 61.3 197.228 60.904C196.076 59.608 193.952 57.592 193.952 57.592ZM190.676 49.168H175.772L176.096 50.176H190.676V49.168ZM172.424 48.88L171.956 49.024C172.64 50.644 173.216 53.02 173.072 54.964C175.412 57.484 178.76 52.552 172.424 48.88ZM165.8 49.276H165.224C165.476 51.688 164.54 54.46 163.712 55.576C162.848 56.332 162.488 57.376 163.064 58.24C163.784 59.284 165.44 59.032 166.124 57.952C167.06 56.368 167.312 53.236 165.8 49.276ZM173.036 43.012L167.78 42.472V76.24H168.572C170.084 76.24 171.704 75.448 171.704 75.052V44.02C172.712 43.876 172.964 43.516 173.036 43.012Z" fill="#4B3915"/>
<path d="M237.836 49.456L233.66 47.008C232.652 49.924 229.628 55.36 227.36 57.412C227.072 57.628 226.352 57.808 226.352 57.808L228.008 61.408C228.692 61.12 229.268 60.112 229.412 58.276H227.792L227.864 58.708C231.068 56.44 234.992 52.192 236.792 49.456L235.748 49.672C236.864 50.176 237.584 49.852 237.836 49.456ZM235.532 44.272L230.924 42.256C230.42 44.38 228.692 48.448 227.288 49.852C227 50.032 226.424 50.176 226.424 50.176L228.08 53.848C228.764 53.524 229.34 52.516 229.484 50.644H227.828V51.076C230.168 49.564 233.084 46.576 234.632 44.452L233.516 44.632C234.704 45.064 235.352 44.704 235.532 44.272ZM215.624 49.492L211.448 47.044C210.404 49.996 207.164 55.432 204.788 57.484C204.5 57.7 203.78 57.88 203.78 57.88L205.4 61.48C206.084 61.156 206.696 60.184 206.84 58.348H205.256L205.292 58.78C208.604 56.512 212.708 52.228 214.58 49.528L213.5 49.708C214.652 50.212 215.372 49.924 215.624 49.492ZM212.996 44.344L208.424 42.364C207.92 44.452 206.192 48.52 204.788 49.924C204.5 50.104 203.96 50.248 203.96 50.248L205.58 53.884C206.264 53.524 206.84 52.552 206.948 50.716H205.328L205.364 51.148C207.632 49.6 210.512 46.648 212.06 44.488L210.944 44.704C212.168 45.136 212.816 44.776 212.996 44.344ZM218.36 68.428L213.608 65.188C210.8 68.968 206.804 72.244 203.384 74.008L203.564 74.44C207.704 73.792 213.176 71.956 216.812 68.788C217.676 68.932 218.108 68.824 218.36 68.428ZM224.66 66.952L224.48 67.348C228.296 69.004 231.68 71.884 233.696 74.188C238.664 75.916 238.7 65.944 224.66 66.952ZM227.18 57.736L228.152 60.832C231.032 59.608 233.984 58.168 235.352 57.484L235.28 57.016C232.004 57.34 228.62 57.664 227.18 57.736ZM227 50.284L228.152 53.416C230.636 52.3 233.192 50.968 234.272 50.356L234.236 49.888C231.356 50.104 228.332 50.248 227 50.284ZM233.768 53.776L233.336 53.956C233.984 55.612 234.596 58.06 234.524 60.076C236.864 62.632 240.212 57.628 233.768 53.776ZM204.536 57.88L205.472 60.976C208.532 59.752 211.556 58.312 212.996 57.628L212.96 57.16C209.504 57.484 206.048 57.808 204.536 57.88ZM204.536 50.356L205.652 53.452C208.136 52.336 210.728 51.04 211.772 50.428L211.736 49.924C208.892 50.14 205.868 50.32 204.536 50.356ZM224.372 61.084L218.576 60.58V76.24H219.332C221.096 76.24 223.04 75.484 223.04 75.16V62.092C224.012 61.948 224.3 61.588 224.372 61.084ZM233.192 60.94L230.816 63.964H203.888L204.176 64.972H236.504C237.044 64.972 237.404 64.792 237.512 64.396C235.892 62.992 233.192 60.94 233.192 60.94ZM211.052 53.884L210.584 54.064C211.304 55.684 211.916 58.132 211.736 60.148C214.04 62.668 217.28 57.664 211.052 53.884ZM223.832 42.904L219.008 42.292C219.008 43.804 218.9 46.108 218.792 47.44H219.728C220.52 46.432 221.78 44.92 222.5 43.876C223.292 43.804 223.688 43.48 223.832 42.904ZM221.96 46.9H222.284V60.328H222.86C224.048 60.328 225.74 59.608 225.776 59.356V48.34C226.352 48.196 226.784 47.98 227 47.764L223.616 45.172L221.96 46.9ZM218.936 59.824V47.944H224.48V46.9H219.08L215.588 45.46V60.904H216.092C217.532 60.904 218.936 60.148 218.936 59.824ZM224.12 57.592H216.956V58.636H224.12V57.592ZM224.12 52.192H216.956V53.2H224.12V52.192Z" fill="#4B3915"/>
</svg>
