<svg width="62" height="79" viewBox="0 0 62 79" fill="none" xmlns="http://www.w3.org/2000/svg">
<mask id="mask0_112_57" style="mask-type:luminance" maskUnits="userSpaceOnUse" x="0" y="0" width="62" height="79">
<path d="M62 0H0V78.5353H62V0Z" fill="white"/>
</mask>
<g mask="url(#mask0_112_57)">
<path d="M17.98 64.749C17.98 64.8265 17.98 64.9039 17.9025 64.9814L16.275 69.551C16.275 69.6284 16.1975 69.7833 16.12 69.8608L16.0425 69.9382C15.965 69.9382 15.965 69.9382 15.8875 69.9382C15.81 69.9382 15.81 69.9382 15.7325 69.9382C15.655 69.9382 15.655 69.8608 15.655 69.8608C15.5775 69.7833 15.5775 69.6284 15.5 69.551L13.8725 65.0588C13.8725 64.9814 13.795 64.9039 13.795 64.8265C13.795 64.749 13.795 64.6716 13.8725 64.6716L13.95 64.5941H14.0275H14.105C14.105 64.5941 14.1825 64.5941 14.1825 64.6716C14.26 64.749 14.26 64.8265 14.26 64.9039L15.81 69.3961L17.4375 64.9039C17.515 64.6716 17.5925 64.5941 17.7475 64.5941C17.825 64.5941 17.9025 64.5941 17.9025 64.6716C17.98 64.5941 17.98 64.6716 17.98 64.749Z" fill="white"/>
<path d="M23.3275 67.2274C23.3275 67.8471 23.1725 68.4667 22.8625 69.0088C22.63 69.3186 22.32 69.551 22.01 69.7059C21.7 69.8608 21.3125 69.9382 20.925 69.9382C20.5375 69.9382 20.15 69.8608 19.84 69.7059C19.53 69.551 19.22 69.3186 18.9875 68.9314C18.6775 68.3892 18.445 67.7696 18.5225 67.15C18.5225 66.5304 18.6775 65.9108 18.9875 65.3686C19.22 65.0588 19.53 64.8265 19.84 64.6716C20.15 64.5167 20.5375 64.4392 20.925 64.4392C21.3125 64.4392 21.7 64.5167 22.01 64.6716C22.32 64.8265 22.63 65.0588 22.8625 65.4461C23.1725 65.9882 23.405 66.6078 23.3275 67.2274ZM22.8625 67.2274C22.8625 66.6078 22.7075 65.9882 22.32 65.5235C22.0875 65.2912 21.855 65.0588 21.545 64.9814C21.39 64.9039 21.1575 64.9039 20.925 64.9039C20.6925 64.9039 20.3825 64.9814 20.15 65.0588C19.9175 65.1363 19.685 65.2912 19.53 65.5235C19.1425 65.9882 18.9875 66.6078 18.9875 67.2274C18.9875 67.8471 19.1425 68.4667 19.53 68.9314C19.685 69.1637 19.9175 69.3186 20.15 69.3961C20.3825 69.4735 20.615 69.551 20.925 69.551C21.1575 69.551 21.4675 69.4735 21.7 69.3961C21.9325 69.3186 22.165 69.1637 22.32 68.9314C22.7075 68.4667 22.8625 67.8471 22.8625 67.2274Z" fill="white"/>
<path d="M27.5126 69.6284C27.5126 69.7833 27.3576 69.8608 27.1251 69.8608H24.6451C24.4901 69.8608 24.4126 69.8608 24.2576 69.7833C24.1801 69.7059 24.1801 69.6284 24.1801 69.4735V64.9814C24.1801 64.6716 24.2576 64.5941 24.4126 64.5941C24.5676 64.5941 24.6451 64.749 24.6451 64.9814V69.4735H27.1251C27.4351 69.4735 27.5126 69.551 27.5126 69.6284Z" fill="white"/>
<path d="M32.395 69.7833C32.395 69.8608 32.395 69.9382 32.3175 69.9382L32.24 70.0157H32.1625H32.085C32.085 70.0157 32.0075 70.0157 32.0075 69.9382C31.93 69.8608 31.93 69.7833 31.93 69.7059L31.31 68.2343H28.83L28.21 69.7059C28.21 69.7833 28.1325 69.8608 28.1325 69.9382L28.055 70.0157H27.9775H27.9C27.9 70.0157 27.8225 70.0157 27.8225 69.9382L27.745 69.8608V69.7833C27.745 69.7059 27.8225 69.6284 27.8225 69.4735L29.6825 64.9814C29.6825 64.9039 29.76 64.749 29.8375 64.6716L29.915 64.5941C29.9925 64.5941 29.9925 64.5941 30.07 64.5941C30.1475 64.5941 30.1475 64.5941 30.225 64.5941C30.3025 64.5941 30.3025 64.6716 30.3025 64.6716C30.38 64.749 30.4575 64.9039 30.4575 64.9814L32.395 69.4735C32.395 69.551 32.395 69.6284 32.395 69.7833ZM31.0775 67.7696L29.9925 65.1363L28.9075 67.7696H31.0775Z" fill="white"/>
<path d="M37.045 69.4735C37.045 69.6284 37.045 69.7833 36.9675 69.9382C36.89 70.0157 36.8125 70.0157 36.735 70.0157C36.6575 70.0157 36.5025 69.9382 36.3475 69.7059L33.48 65.4461V69.6284C33.48 69.7059 33.48 69.7833 33.48 69.8608C33.48 69.9382 33.4025 69.9382 33.4025 69.9382C33.325 69.9382 33.325 69.9382 33.2475 69.9382C33.0925 69.9382 33.015 69.7833 33.015 69.551V64.9814C33.015 64.9039 33.015 64.749 33.015 64.6716C33.015 64.5941 33.0925 64.5941 33.0925 64.5167C33.17 64.5167 33.17 64.4392 33.2475 64.5167C33.325 64.5167 33.48 64.5941 33.5575 64.8265L36.5025 69.1637V64.8265C36.5025 64.5941 36.58 64.5167 36.735 64.5167C36.89 64.5167 36.9675 64.6716 36.9675 64.9039L37.045 69.4735Z" fill="white"/>
<path d="M42.47 67.2275C42.47 67.6922 42.3925 68.1569 42.2375 68.5441C42.16 68.7765 42.005 69.0863 41.7725 69.2412C41.54 69.4735 41.3075 69.6284 41.075 69.7059C40.765 69.7833 40.3775 69.8608 39.99 69.8608H38.595C38.44 69.8608 38.3625 69.8608 38.2075 69.7833C38.13 69.7059 38.13 69.551 38.13 69.4735V65.0588C38.13 64.9039 38.13 64.8265 38.2075 64.749C38.285 64.6716 38.44 64.6716 38.595 64.6716H39.99C40.3775 64.6716 40.6875 64.6716 41.075 64.8265C41.3075 64.9039 41.6175 65.0588 41.7725 65.2912C42.005 65.5235 42.16 65.7559 42.2375 65.9882C42.3925 66.298 42.47 66.7627 42.47 67.2275ZM41.9275 67.15C41.9275 66.8402 41.85 66.4529 41.7725 66.1431C41.695 65.9108 41.6175 65.7559 41.4625 65.601C41.3075 65.4461 41.1525 65.2912 40.92 65.2137C40.61 65.0588 40.3 65.0588 39.9125 65.0588H38.6725V69.4735H39.9125C40.2225 69.4735 40.61 69.4735 40.92 69.3186C41.6175 69.0088 41.9275 68.3118 41.9275 67.15Z" fill="white"/>
<path d="M48.05 67.2274C48.05 67.8471 47.895 68.4667 47.5075 69.0088C47.275 69.3186 46.965 69.551 46.655 69.7059C46.345 69.8608 45.9575 69.9382 45.57 69.9382C45.1825 69.9382 44.795 69.8608 44.485 69.7059C44.175 69.551 43.865 69.3186 43.6325 68.9314C43.3225 68.3892 43.09 67.7696 43.1675 67.15C43.1675 66.5304 43.3225 65.9108 43.6325 65.3686C43.865 65.0588 44.175 64.8265 44.485 64.6716C44.795 64.5167 45.1825 64.4392 45.57 64.4392C45.9575 64.4392 46.345 64.5167 46.655 64.6716C46.965 64.8265 47.275 65.0588 47.5075 65.4461C47.895 65.9882 48.05 66.6078 48.05 67.2274ZM47.5075 67.2274C47.5075 66.6078 47.3525 65.9882 46.965 65.5235C46.7325 65.2912 46.5 65.0588 46.19 64.9814C46.035 64.9039 45.8025 64.9039 45.57 64.9039C45.3375 64.9039 45.0275 64.9814 44.795 65.0588C44.5625 65.1363 44.33 65.2912 44.175 65.5235C43.7875 65.9882 43.6325 66.6078 43.6325 67.2274C43.6325 67.8471 43.7875 68.4667 44.175 68.9314C44.33 69.1637 44.5625 69.3186 44.795 69.3961C45.0275 69.4735 45.26 69.551 45.57 69.551C45.8025 69.551 46.1125 69.4735 46.345 69.3961C46.5775 69.3186 46.81 69.1637 46.965 68.9314C47.3525 68.4667 47.585 67.8471 47.5075 67.2274Z" fill="white"/>
<path d="M62 4.33725C62 3.87255 62 3.40784 62 2.86568C61.845 0.619607 60.8375 -0.542158 59.21 0.154901C57.2725 1.00686 59.055 3.71765 59.21 5.11176C59.52 7.28039 59.365 9.52647 58.59 11.6176C56.11 15.1029 51.46 19.0529 42.625 21.6863C37.1225 23.3127 33.17 26.3333 31.0775 30.3608C28.9075 26.2559 24.955 23.2353 19.4525 21.6863C10.3075 18.9755 5.73501 14.8706 3.41001 11.6176C2.71251 9.52647 2.55751 7.35784 2.86751 5.18921C3.02251 3.87255 4.80501 1.08431 2.86751 0.232352C1.31751 -0.464707 0.310015 0.697057 0.0775146 2.94314C0.0775146 3.40784 0.0775146 3.87255 0.0775146 4.33725C0.0775146 4.87941 0.232515 7.82255 2.40251 11.2304C4.57251 14.6382 9.22251 19.3627 19.2975 22.3059C25.8075 24.2422 29.0625 27.65 30.69 31.0578C30.1475 32.2971 29.6825 33.6137 29.45 34.9304C28.83 38.648 29.295 42.4431 30.69 46.0059C28.7525 51.0402 25.0325 55.9196 20.0725 59.5598C17.2825 61.2637 15.5 60.6441 14.8025 59.5598C13.8725 58.0882 14.4925 55.4549 17.205 53.751C18.3675 52.7441 28.365 43.7598 26.195 35.2402C24.8 29.7412 18.755 25.7912 8.13751 23.3127C6.20001 22.7706 4.26251 23.0029 3.25501 23.9324C3.02251 24.1647 2.79001 24.4745 2.71251 24.7843C2.63501 25.0941 2.63501 25.4814 2.71251 25.7912C3.02251 26.9529 4.57251 29.199 11.935 31.1353C15.1125 31.7549 18.8325 34.3882 19.53 37.951C19.9175 40.1971 19.22 43.6823 13.485 47.3225C11.2375 48.6392 8.99001 48.8716 7.67251 47.8647C7.36251 47.6323 7.05251 47.4 6.89751 47.0127C6.74251 46.6255 6.66501 46.2382 6.74251 45.9284C6.89751 44.9216 7.82751 44.0696 9.37751 43.6824C9.53251 43.6049 13.8725 42.2108 13.795 39.0353C13.33 36.3245 10.85 35.55 8.37001 35.0853C8.29251 35.0853 8.21501 35.0853 8.13751 35.1627C8.06001 35.2402 8.06001 35.2402 7.98251 35.3176C7.98251 35.3951 7.98251 35.4725 8.06001 35.55C8.13751 35.6274 8.13751 35.6274 8.21501 35.7049C10.54 36.0922 12.7875 36.7892 13.0975 39.1127C13.175 41.8235 9.14501 43.1402 9.14501 43.1402C7.44001 43.6049 6.27751 44.6118 6.12251 45.851C6.20001 46.2382 6.20001 46.7804 6.43251 47.2451C6.66501 47.7098 6.97501 48.0971 7.36251 48.3294C8.91251 49.4137 11.3925 49.2588 13.8725 47.7873C19.9175 43.9922 20.615 40.2745 20.2275 37.7961C19.53 33.9235 15.5775 31.2127 12.1675 30.5157C4.72751 28.502 3.64251 26.2559 3.48751 25.5588C3.41001 25.3265 3.41001 25.0941 3.48751 24.8618C3.56501 24.6294 3.72001 24.3971 3.87501 24.2422C4.72751 23.4676 6.43251 23.2353 8.13751 23.7C18.5225 26.101 24.4125 29.9735 25.73 35.1627C27.8225 43.45 17.515 52.5118 16.895 53.0539C13.8725 54.9902 13.2525 58.0108 14.3375 59.7147C14.6475 60.1794 15.035 60.4892 15.5 60.7216C15.965 60.9539 16.5075 61.0314 16.9725 61.0314C18.2125 60.9539 19.4525 60.5667 20.46 59.8696C25.11 56.4618 28.7525 51.8922 31 46.6255C33.2475 51.8922 36.9675 56.5392 41.6175 59.9471C42.625 60.6441 43.865 61.0314 45.0275 61.1088C45.57 61.1088 46.035 61.0314 46.5 60.799C46.965 60.5667 47.3525 60.1794 47.6625 59.7922C48.7475 58.0882 48.1275 55.1451 45.105 53.1314C44.485 52.5892 34.255 43.45 36.27 35.2402C37.5875 29.9735 43.4775 26.101 53.8625 23.7775C55.5675 23.3127 57.2725 23.4676 58.125 24.3196C58.28 24.4745 58.435 24.7069 58.5125 24.9392C58.59 25.1716 58.59 25.4039 58.5125 25.6363C58.3575 26.2559 57.195 28.5794 49.755 30.5931C46.4225 31.2902 42.3925 34.001 41.695 37.8735C41.23 40.352 42.005 43.9922 48.05 47.8647C50.53 49.2588 52.9325 49.4912 54.56 48.4069C54.9475 48.1745 55.335 47.7873 55.49 47.3225C55.7225 46.8578 55.8 46.3931 55.7225 45.851C55.49 44.6118 54.405 43.6049 52.7 43.1402C52.6225 43.1402 48.67 41.8235 48.7475 39.1127C49.135 36.7892 51.305 36.0922 53.63 35.7049C53.7075 35.7049 53.7075 35.7049 53.7075 35.6274L53.785 35.55C53.785 35.55 53.785 35.4725 53.8625 35.4725C53.8625 35.4725 53.8625 35.3951 53.8625 35.3176C53.8625 35.3176 53.8625 35.2402 53.785 35.2402L53.7075 35.1627C53.7075 35.1627 53.63 35.1627 53.63 35.0853H53.5525C51.15 35.4725 48.5925 36.3245 48.1275 39.0353C48.05 42.2108 52.3125 43.6049 52.545 43.6824C54.0175 44.0696 55.025 44.9216 55.18 45.9284C55.2575 46.3157 55.18 46.7029 55.025 47.0127C54.87 47.4 54.6375 47.6323 54.25 47.8647C52.855 48.7941 50.685 48.6392 48.4375 47.3225C42.7025 43.6823 41.9275 40.1971 42.3925 37.951C43.09 34.3882 46.81 31.7549 49.9875 31.1353C57.2725 29.199 58.8225 26.9529 59.1325 25.7912C59.21 25.4814 59.21 25.0941 59.1325 24.7843C59.055 24.4745 58.8225 24.1647 58.59 23.9324C57.5825 23.0029 55.645 22.6931 53.785 23.2353C43.09 25.7912 37.045 29.7412 35.65 35.2402C33.48 43.7598 43.555 52.7441 44.64 53.751C47.3525 55.5324 47.9725 58.0882 47.0425 59.5598C46.345 60.6441 44.5625 61.2637 41.7725 59.5598C36.8125 55.8422 33.0925 51.0402 31.155 45.9284C32.55 42.4431 33.015 38.5706 32.395 34.8529C32.1625 33.5363 31.775 32.2196 31.155 30.9804C32.7825 27.5725 36.115 24.1647 42.5475 22.2284C52.545 19.2853 57.2725 14.5608 59.4425 11.1529C62 7.43529 62 4.49216 62 4.33725ZM31.93 35.0078C32.4725 38.4157 32.1625 41.901 31 45.0765C29.8375 41.8235 29.45 38.4157 29.9925 35.0078C30.225 33.8461 30.535 32.7618 31 31.6774C31.465 32.7618 31.775 33.8461 31.93 35.0078Z" fill="white"/>
</g>
</svg>
